<?xml version="1.0" encoding="iso-8859-1"?>
<!-- Generator: Adobe Illustrator 19.0.0, SVG Export Plug-In . SVG Version: 6.00 Build 0)  -->
<svg version="1.1" id="Capa_1" xmlns="http://www.w3.org/2000/svg" xmlns:xlink="http://www.w3.org/1999/xlink" x="0px" y="0px"
	 viewBox="0 0 512 512" style="enable-background:new 0 0 512 512;" xml:space="preserve">
<g>
	<g>
		<path d="M488,0H24C10.768,0,0,10.768,0,24v264v48c0,13.232,10.768,24,24,24h175.24l-6.544,72H136c-4.416,0-8,3.576-8,8
			s3.584,8,8,8h64h112h64c4.416,0,8-3.576,8-8s-3.584-8-8-8h-56.696l-6.544-72H488c13.232,0,24-10.768,24-24v-48V24
			C512,10.768,501.232,0,488,0z M208.76,432l6.544-72h81.392l6.544,72H208.76z M496,336c0,4.416-3.592,8-8,8H304h-96H24
			c-4.408,0-8-3.584-8-8v-40h480V336z M496,280H16V24c0-4.416,3.592-8,8-8h464c4.408,0,8,3.584,8,8V280z"/>
	</g>
</g>
<g>
	<g>
		<path d="M251.576,136.84l-59.816-29.904C192,104.632,192,104.312,192,104c0-31.4-17.568-56-40-56s-40,24.6-40,56
			c0,0.312,0,0.632,0.24,2.936L52.424,136.84C49.712,138.2,48,140.968,48,144v16c0,4.424,3.584,8,8,8h65.752l5.048,20.184
			l-34.92,20.952C89.472,210.584,88,213.184,88,216v8c0,4.424,3.584,8,8,8h31.728c3.408,10.632,11.776,24,24.296,24
			c12.48,0,20.84-13.376,24.24-24H208c4.416,0,8-3.576,8-8v-8c0-2.816-1.472-5.416-3.88-6.856l-34.92-20.952L182.248,168H248
			c4.416,0,8-3.576,8-8v-16C256,140.968,254.288,138.2,251.576,136.84z M240,152h-64c-3.672,0-6.872,2.496-7.76,6.064l-8,32
			c-0.848,3.416,0.624,6.984,3.648,8.8L192.448,216H169.92c-4.048,0-7.48,3.192-7.96,7.216c-0.936,7.72-7.248,16.784-9.984,16.784
			c-2.68,0-9-9.064-9.976-17.136c-0.56-3.936-3.936-6.864-7.92-6.864h-22.528l28.568-17.144c3.016-1.816,4.496-5.384,3.648-8.8
			l-8-32c-0.896-3.56-4.096-6.056-7.768-6.056H64v-3.056L113.888,124l0.952,5.712c0.712,4.28,4.696,7.224,9.008,6.608
			c4.304-0.608,7.328-4.536,6.824-8.848C128.368,107.68,128.024,104.2,128,104c0-21.68,10.992-40,24-40s24,18.32,24.008,39.632
			c-0.04,0.568-0.376,4.048-2.688,23.832c-0.504,4.312,2.52,8.24,6.824,8.848c4.328,0.648,8.296-2.328,9.008-6.608l0.952-5.712
			L240,148.944V152z"/>
	</g>
</g>
<g>
	<g>
		<rect x="144" y="96" width="16" height="16"/>
	</g>
</g>
<g>
	<g>
		<path d="M364,40c-33.088,0-60,26.912-60,60s26.912,60,60,60s60-26.912,60-60S397.088,40,364,40z M364,144
			c-24.264,0-44-19.744-44-44s19.736-44,44-44c24.264,0,44,19.744,44,44S388.264,144,364,144z"/>
	</g>
</g>
<g>
	<g>
		<path d="M368,96V80h-16v24c0,4.424,3.584,8,8,8h24V96H368z"/>
	</g>
</g>
<g>
	<g>
		<rect x="272" y="176" width="88" height="16"/>
	</g>
</g>
<g>
	<g>
		<rect x="384" y="176" width="72" height="16"/>
	</g>
</g>
<g>
	<g>
		<rect x="272" y="240" width="96" height="16"/>
	</g>
</g>
<g>
	<g>
		<rect x="392" y="240" width="64" height="16"/>
	</g>
</g>
<g>
	<g>
		<rect x="272" y="208" width="40" height="16"/>
	</g>
</g>
<g>
	<g>
		<rect x="336" y="208" width="120" height="16"/>
	</g>
</g>
<g>
	<g>
		<rect x="232" y="312" width="48" height="16"/>
	</g>
</g>
<g>
	<g>
		<path d="M344,464H24c-13.232,0-24,10.768-24,24v16c0,4.424,3.584,8,8,8h352c4.416,0,8-3.576,8-8v-16
			C368,474.768,357.232,464,344,464z M352,496H16v-8c0-4.416,3.592-8,8-8h320c4.408,0,8,3.584,8,8V496z"/>
	</g>
</g>
<g>
	<g>
		<path d="M488,464h-64c-13.232,0-24,10.768-24,24v16c0,4.424,3.584,8,8,8h96c4.416,0,8-3.576,8-8v-16
			C512,474.768,501.232,464,488,464z M496,496h-80v-8c0-4.416,3.592-8,8-8h64c4.408,0,8,3.584,8,8V496z"/>
	</g>
</g>
<g>
	<g>
		<rect x="432" y="384" width="16" height="16"/>
	</g>
</g>
<g>
	<g>
		<rect x="464" y="384" width="16" height="16"/>
	</g>
</g>
<g>
	<g>
		<rect x="400" y="384" width="16" height="16"/>
	</g>
</g>
<g>
	<g>
		<rect x="368" y="384" width="16" height="16"/>
	</g>
</g>
<g>
	<g>
		<rect x="96" y="384" width="16" height="16"/>
	</g>
</g>
<g>
	<g>
		<rect x="128" y="384" width="16" height="16"/>
	</g>
</g>
<g>
	<g>
		<rect x="64" y="384" width="16" height="16"/>
	</g>
</g>
<g>
	<g>
		<rect x="32" y="384" width="16" height="16"/>
	</g>
</g>
<g>
	<g>
		<rect x="248" y="384" width="16" height="16"/>
	</g>
</g>
<g>
</g>
<g>
</g>
<g>
</g>
<g>
</g>
<g>
</g>
<g>
</g>
<g>
</g>
<g>
</g>
<g>
</g>
<g>
</g>
<g>
</g>
<g>
</g>
<g>
</g>
<g>
</g>
<g>
</g>
</svg>
