<?xml version="1.0" encoding="iso-8859-1"?>
<!-- Generator: Adobe Illustrator 19.0.0, SVG Export Plug-In . SVG Version: 6.00 Build 0)  -->
<svg version="1.1" id="Capa_1" xmlns="http://www.w3.org/2000/svg" xmlns:xlink="http://www.w3.org/1999/xlink" x="0px" y="0px"
	 viewBox="0 0 480 480" style="enable-background:new 0 0 480 480;" xml:space="preserve">
<g>
	<g>
		<path d="M253.774,272c-1.393-2.391-3.383-4.381-5.774-5.774V192h-16v74.226c-7.636,4.39-10.268,14.138-5.878,21.774
			c2.854,4.965,8.151,8.019,13.878,8c5.69-0.019,10.939-3.067,13.774-8H312v-16H253.774z"/>
	</g>
</g>
<g>
	<g>
		<path d="M472.004,24c-0.001,0-0.003,0-0.004,0h-40V8c0.001-4.417-3.579-7.999-7.996-8c-0.001,0-0.003,0-0.004,0h-32
			c-4.417-0.001-7.999,3.579-8,7.996c0,0.001,0,0.003,0,0.004v16H96V8c0.001-4.417-3.579-7.999-7.996-8C88.003,0,88.001,0,88,0H56
			c-4.417-0.001-7.999,3.579-8,7.996C48,7.997,48,7.999,48,8v16H8c-4.417-0.001-7.999,3.579-8,7.996C0,31.997,0,31.999,0,32v440
			c-0.001,4.417,3.579,7.999,7.996,8c0.001,0,0.003,0,0.004,0h464c4.417,0.001,7.999-3.579,8-7.996c0-0.001,0-0.003,0-0.004V32
			C480.001,27.583,476.421,24.001,472.004,24z M400,16h16v24h-16V16z M64,16h16v24H64V16z M464,464H16V88h448V464z M464,72H16V40h32
			v8c-0.001,4.417,3.579,7.999,7.996,8c0.001,0,0.003,0,0.004,0h32c4.417,0.001,7.999-3.579,8-7.996c0-0.001,0-0.003,0-0.004v-8h288
			v8c-0.001,4.417,3.579,7.999,7.996,8c0.001,0,0.003,0,0.004,0h32c4.417,0.001,7.999-3.579,8-7.996c0-0.001,0-0.003,0-0.004v-8h32
			V72z"/>
	</g>
</g>
<g>
	<g>
		<path d="M424.004,112c-0.001,0-0.003,0-0.004,0h-80c-4.417-0.001-7.999,3.579-8,7.996c0,0.001,0,0.003,0,0.004v63.767
			c-13.644-13.557-30.002-24.072-48-30.855V120c0.001-4.417-3.579-7.999-7.996-8c-0.001,0-0.003,0-0.004,0h-80
			c-4.417-0.001-7.999,3.579-8,7.996c0,0.001,0,0.003,0,0.004v32.912c-17.998,6.783-34.356,17.298-48,30.855V120
			c0.001-4.417-3.579-7.999-7.996-8c-0.001,0-0.003,0-0.004,0H56c-4.417-0.001-7.999,3.579-8,7.996c0,0.001,0,0.003,0,0.004v64
			c-0.001,4.417,3.579,7.999,7.996,8c0.001,0,0.003,0,0.004,0h80c0.215,0,0.396-0.105,0.606-0.122
			c-12.049,14.06-21.096,30.437-26.584,48.122H56c-4.417-0.001-7.999,3.579-8,7.996c0,0.001,0,0.003,0,0.004v64
			c-0.001,4.417,3.579,7.999,7.996,8c0.001,0,0.003,0,0.004,0h54.022c4.478,14.365,11.318,27.883,20.239,40H56
			c-4.417-0.001-7.999,3.579-8,7.996c0,0.001,0,0.003,0,0.004v64c-0.001,4.417,3.579,7.999,7.996,8c0.001,0,0.003,0,0.004,0h80
			c4.417,0.001,7.999-3.579,8-7.996c0-0.001,0-0.003,0-0.004v-55.767c13.644,13.557,30.002,24.072,48,30.855V440
			c-0.001,4.417,3.579,7.999,7.996,8c0.001,0,0.003,0,0.004,0h80c4.417,0.001,7.999-3.579,8-7.996c0-0.001,0-0.003,0-0.004v-32.912
			c17.998-6.783,34.356-17.298,48-30.855V432c-0.001,4.417,3.579,7.999,7.996,8c0.001,0,0.003,0,0.004,0h80
			c4.417,0.001,7.999-3.579,8-7.996c0-0.001,0-0.003,0-0.004v-64c0.001-4.417-3.579-7.999-7.996-8c-0.001,0-0.003,0-0.004,0h-74.261
			c8.921-12.117,15.761-25.635,20.239-40H424c4.417,0.001,7.999-3.579,8-7.996c0-0.001,0-0.003,0-0.004v-64
			c0.001-4.417-3.579-7.999-7.996-8c-0.001,0-0.003,0-0.004,0h-54.022c-5.488-17.685-14.534-34.062-26.584-48.122
			c0.211,0.017,0.391,0.122,0.606,0.122h80c4.417,0.001,7.999-3.579,8-7.996c0-0.001,0-0.003,0-0.004v-64
			C432.001,115.583,428.421,112.001,424.004,112z M128,176H64v-48h64V176z M106.251,304H64v-48h42.251
			C103.25,271.859,103.25,288.141,106.251,304z M128,424H64v-48h64V424z M352,376h64v48h-64V376z M373.749,256H416v48h-42.251
			C376.75,288.141,376.75,271.859,373.749,256z M208,128h64v19.96c-21.007-5.28-42.993-5.28-64,0V128z M272,432h-64v-19.96
			c21.007,5.28,42.993,5.28,64,0V432z M359.595,272H328v16h31.595C355.535,347.87,307.87,395.535,248,399.595V384h-16v15.595
			C172.13,395.535,124.465,347.87,120.405,288H152v-16h-31.595c4.06-59.87,51.725-107.535,111.595-111.595V176h16v-15.595
			C307.87,164.465,355.535,212.13,359.595,272z M416,176h-64v-48h64V176z"/>
	</g>
</g>
<g>
</g>
<g>
</g>
<g>
</g>
<g>
</g>
<g>
</g>
<g>
</g>
<g>
</g>
<g>
</g>
<g>
</g>
<g>
</g>
<g>
</g>
<g>
</g>
<g>
</g>
<g>
</g>
<g>
</g>
</svg>
