<?xml version="1.0" encoding="iso-8859-1"?>
<!-- Generator: Adobe Illustrator 19.0.0, SVG Export Plug-In . SVG Version: 6.00 Build 0)  -->
<svg version="1.1" id="Capa_1" xmlns="http://www.w3.org/2000/svg" xmlns:xlink="http://www.w3.org/1999/xlink" x="0px" y="0px"
	 viewBox="0 0 512 512" style="enable-background:new 0 0 512 512;" xml:space="preserve">
<g>
	<g>
		<path d="M315.506,6.956C296.124,2.34,276.104,0,256,0C187.62,0,123.333,26.629,74.98,74.981C26.629,123.333,0,187.62,0,256
			c0,54.05,16.513,105.384,47.815,148.988c-12.088,16.561-10.664,39.977,4.277,54.92c8.26,8.259,19.109,12.389,29.959,12.389
			c10.85,0,21.699-4.13,29.959-12.389c16.519-16.52,16.519-43.398,0-59.918c-8.002-8.003-18.642-12.41-29.958-12.41
			c-6.679,0-13.116,1.546-18.92,4.449C34.887,352.123,20,305.287,20,256C20,125.869,125.869,20,256,20
			c18.545,0,37.007,2.157,54.873,6.412c5.366,1.279,10.765-2.038,12.044-7.412C324.197,13.627,320.879,8.235,315.506,6.956z
			 M66.235,414.131c4.225-4.225,9.842-6.552,15.816-6.552s11.592,2.327,15.816,6.552c8.723,8.722,8.723,22.913,0.001,31.634
			c-8.723,8.721-22.912,8.721-31.633,0C57.513,437.043,57.513,422.852,66.235,414.131z"/>
	</g>
</g>
<g>
	<g>
		<path d="M464.186,107.01c12.087-16.561,10.663-39.976-4.278-54.918c-16.52-16.519-43.398-16.519-59.918,0
			c-16.519,16.52-16.519,43.398,0,59.918c8.003,8.002,18.643,12.409,29.959,12.409c6.677,0,13.112-1.545,18.915-4.447
			C477.105,159.885,492,206.743,492,256c0,130.131-105.869,236-236,236c-18.608,0-37.131-2.171-55.053-6.454
			c-5.366-1.281-10.766,2.03-12.051,7.402c-1.283,5.372,2.03,10.767,7.402,12.05C215.741,509.644,235.828,512,256,512
			c68.38,0,132.667-26.629,181.02-74.981C485.371,388.667,512,324.38,512,256C512,201.983,495.484,150.621,464.186,107.01z
			 M445.764,97.869c-4.225,4.225-9.842,6.552-15.816,6.552s-11.592-2.328-15.816-6.553c-8.722-8.721-8.722-22.912,0-31.633
			c4.361-4.361,10.088-6.541,15.816-6.541c5.728,0,11.456,2.181,15.816,6.541C454.486,74.957,454.486,89.148,445.764,97.869z"/>
	</g>
</g>
<g>
	<g>
		<path d="M168.276,475.16c-0.044-0.018-0.16-0.065-0.204-0.083c-5.126-2.049-10.978,0.43-13.028,5.559
			c-2.052,5.127,0.413,10.935,5.541,12.986c1.257,0.524,2.56,0.771,3.842,0.771c3.916,0,7.635-2.315,9.234-6.156
			C175.785,483.139,173.375,477.284,168.276,475.16z"/>
	</g>
</g>
<g>
	<g>
		<path d="M351.864,18.559l-0.221-0.089c-5.125-2.059-10.948,0.426-13.008,5.551c-2.058,5.125,0.428,10.948,5.552,13.007
			l0.105,0.042c1.239,0.507,2.521,0.747,3.782,0.747c3.94,0,7.676-2.344,9.26-6.216C359.425,26.49,356.977,20.65,351.864,18.559z"/>
	</g>
</g>
<g>
	<g>
		<path d="M387.126,211.251c-4.39,0-8.731,0.4-12.998,1.196c-6.038-65.354-61.176-116.702-128.079-116.702
			c-33.78,0-65.692,12.995-89.857,36.592c-21.842,21.328-35.183,49.176-38.142,79.239C82.159,215.022,54,245.347,54,282.125
			C54,321.206,85.794,353,124.874,353h12.499c5.522,0,10-4.477,10-10s-4.477-10-10-10h-12.499C96.822,333,74,310.178,74,282.125
			c0-28.053,22.822-50.874,50.874-50.874c0.727,0,1.447,0.026,2.166,0.057c0.327,0.014,0.651,0.011,0.974-0.007
			c0.262,0.041,0.524,0.081,0.793,0.102c12.08,0.93,23.459,6.168,32.04,14.75c1.953,1.953,4.512,2.929,7.071,2.929
			s5.119-0.977,7.071-2.929c3.905-3.905,3.905-10.237,0-14.142c-10.108-10.107-23.01-16.869-36.93-19.506
			c5.853-54.94,51.658-96.758,107.989-96.758c59.897,0,108.627,48.73,108.627,108.627l-0.014,1.078
			c-0.033,3.332,1.595,6.461,4.343,8.346c2.747,1.883,6.252,2.275,9.35,1.046c5.996-2.383,12.312-3.592,18.771-3.592
			c28.052,0,50.874,22.822,50.874,50.874S415.178,333,387.126,333h-12.512c-5.522,0-10,4.477-10,10s4.478,10,10,10h12.512
			c39.08,0,70.874-31.794,70.874-70.875C458,243.045,426.206,211.251,387.126,211.251z"/>
	</g>
</g>
<g>
	<g>
		<path d="M312.671,256.951h-0.677v-14.522c0-30.875-25.119-55.994-55.994-55.994s-55.994,25.119-55.994,55.994v14.522h-0.677
			c-15.069,0-27.329,12.26-27.329,27.329v94.391C172,393.74,184.26,406,199.329,406h113.342C327.74,406,340,393.74,340,378.671
			V284.28C340,269.211,327.74,256.951,312.671,256.951z M220.006,242.429c0-19.847,16.146-35.994,35.994-35.994
			s35.994,16.147,35.994,35.994v14.522h-71.988V242.429z M320,378.671c0,4.042-3.288,7.329-7.329,7.329H199.329
			c-4.041,0-7.329-3.288-7.329-7.329V284.28c0-4.042,3.288-7.329,7.329-7.329h113.342c4.041,0,7.329,3.288,7.329,7.329V378.671z"/>
	</g>
</g>
<g>
	<g>
		<path d="M277.826,338.362c4.354-5.144,6.827-11.724,6.827-18.59c0-15.859-12.903-28.762-28.763-28.762
			s-28.763,12.903-28.763,28.762c0,6.988,2.542,13.649,7.017,18.819l-4.83,20.068c-0.717,2.979-0.028,6.123,1.867,8.529
			c1.896,2.407,4.791,3.812,7.855,3.812h33.955c3.064,0,5.959-1.405,7.855-3.812c1.896-2.407,2.584-5.55,1.867-8.529
			L277.826,338.362z M260.956,326.919c-3.328,2.367-4.883,6.52-3.928,10.49L260.3,351h-8.569l3.236-13.442
			c0.967-4.019-0.638-8.219-4.039-10.568c-2.378-1.643-3.798-4.34-3.798-7.217c0-4.833,3.931-8.763,8.763-8.763
			c4.832,0,8.763,3.931,8.763,8.762C264.656,322.642,263.307,325.247,260.956,326.919z"/>
	</g>
</g>
<g>
</g>
<g>
</g>
<g>
</g>
<g>
</g>
<g>
</g>
<g>
</g>
<g>
</g>
<g>
</g>
<g>
</g>
<g>
</g>
<g>
</g>
<g>
</g>
<g>
</g>
<g>
</g>
<g>
</g>
</svg>
