<?xml version="1.0" encoding="iso-8859-1"?>
<!-- Generator: Adobe Illustrator 19.0.0, SVG Export Plug-In . SVG Version: 6.00 Build 0)  -->
<svg version="1.1" id="Capa_1" xmlns="http://www.w3.org/2000/svg" xmlns:xlink="http://www.w3.org/1999/xlink" x="0px" y="0px"
	 viewBox="0 0 60 60" style="enable-background:new 0 0 60 60;" xml:space="preserve">
<g>
	<g>
		<path d="M59,0H30v2h28v52h2V1C60,0.4,59.6,0,59,0z"/>
		<path d="M55,4H23l0,0c-0.1,0-0.2,0-0.3,0.1h-0.1c-0.1,0.1-0.2,0.1-0.3,0.2l0,0l-12,12l0,0c-0.1,0.1-0.1,0.2-0.2,0.3v0.1
			c0,0.1-0.1,0.2-0.1,0.3l0,0v6h2v-5h11c0.6,0,1-0.4,1-1V6h30v52H18v2h37c0.6,0,1-0.4,1-1V5C56,4.4,55.6,4,55,4z M13.4,16l4.3-4.3
			L22,7.4V16H13.4z"/>
		<path d="M2,28h46v20H20v2h29c0.6,0,1-0.4,1-1V27c0-0.6-0.4-1-1-1H1c-0.6,0-1,0.4-1,1v13h2V28z"/>
		<path d="M46,37v-6c0-0.6-0.4-1-1-1H5c-0.6,0-1,0.4-1,1v6c0,0.6,0.4,1,1,1h40C45.6,38,46,37.6,46,37z M44,36H6v-4h38V36z"/>
		<rect x="22" y="40" width="2" height="2"/>
		<rect x="26" y="40" width="20" height="2"/>
		<rect x="36" y="44" width="4" height="2"/>
		<rect x="42" y="44" width="4" height="2"/>
		<rect x="43" y="9" width="8" height="2"/>
		<rect x="39" y="13" width="12" height="2"/>
		<rect x="14" y="21" width="2" height="2"/>
		<rect x="18" y="21" width="2" height="2"/>
		<rect x="22" y="21" width="2" height="2"/>
		<rect x="26" y="21" width="2" height="2"/>
		<rect x="30" y="21" width="2" height="2"/>
		<rect x="34" y="21" width="2" height="2"/>
		<rect x="38" y="21" width="2" height="2"/>
		<rect x="42" y="21" width="2" height="2"/>
		<rect x="46" y="21" width="2" height="2"/>
		<rect x="50" y="21" width="2" height="2"/>
		<rect x="22" y="53" width="2" height="2"/>
		<rect x="26" y="53" width="2" height="2"/>
		<rect x="30" y="53" width="2" height="2"/>
		<rect x="34" y="53" width="2" height="2"/>
		<rect x="38" y="53" width="2" height="2"/>
		<rect x="42" y="53" width="2" height="2"/>
		<rect x="46" y="53" width="2" height="2"/>
		<rect x="50" y="53" width="2" height="2"/>
		<path d="M16,48v-4c0-0.6-0.4-1-1-1H5.4l1.3-1.3l-1.4-1.4l-3,3c-0.4,0.4-0.4,1,0,1.4l3,3l1.4-1.4L5.4,45H14v3H16z"/>
		<path d="M12.7,52.3l-1.4,1.4l1.3,1.3H4v-3H2v4c0,0.6,0.4,1,1,1h9.6l-1.3,1.3l1.4,1.4l3-3c0.4-0.4,0.4-1,0-1.4L12.7,52.3z"/>
	</g>
</g>
<g>
</g>
<g>
</g>
<g>
</g>
<g>
</g>
<g>
</g>
<g>
</g>
<g>
</g>
<g>
</g>
<g>
</g>
<g>
</g>
<g>
</g>
<g>
</g>
<g>
</g>
<g>
</g>
<g>
</g>
</svg>
