<?xml version="1.0" encoding="iso-8859-1"?>
<!-- Generator: Adobe Illustrator 19.0.0, SVG Export Plug-In . SVG Version: 6.00 Build 0)  -->
<svg version="1.1" id="Capa_1" xmlns="http://www.w3.org/2000/svg" xmlns:xlink="http://www.w3.org/1999/xlink" x="0px" y="0px"
	 viewBox="0 0 479.998 479.998" style="enable-background:new 0 0 479.998 479.998;" xml:space="preserve">
<g>
	<g>
		<path d="M350.358,67.143c-2.072-2.712-5.648-3.824-8.888-2.728l-17.912,5.968l-20.696-34.496
			c-1.448-2.408-4.056-3.888-6.864-3.888h-104c-2.584,0-5.008,1.248-6.512,3.352l-40,56c-1.256,1.76-1.744,3.96-1.352,6.096
			c0.392,2.128,1.624,4.008,3.432,5.208l48,32c1.32,0.88,2.864,1.344,4.432,1.344c0.56,0,1.128-0.064,1.68-0.176
			c2.112-0.456,3.952-1.752,5.104-3.576l34.016-54.432l19.496,24.376l-16.736,11.16c-2.936,1.952-4.24,5.6-3.216,8.976
			c1.016,3.368,4.136,5.672,7.656,5.672h64c2.672,0,5.168-1.336,6.656-3.56l32-48C352.55,73.591,352.43,69.855,350.358,67.143z
			 M307.719,111.999h-33.296l2.016-1.344c1.864-1.24,3.128-3.208,3.472-5.432s-0.256-4.48-1.664-6.224l-32-40
			c-1.624-2.016-4.096-3.168-6.712-2.984c-2.592,0.152-4.944,1.544-6.32,3.744l-35.632,57.016l-34.272-22.84l32.808-45.936h95.352
			l21.672,36.12c1.928,3.216,5.84,4.68,9.392,3.472l1.88-0.624L307.719,111.999z"/>
	</g>
</g>
<g>
	<g>
		<path d="M135.998,359.999h-54.24l4.312-21.544l15.4,5.136c3.248,1.104,6.816-0.016,8.888-2.728
			c2.072-2.72,2.192-6.456,0.296-9.296l-32-48c-1.68-2.52-4.64-3.848-7.648-3.504l-64,8c-3.32,0.416-6.024,2.84-6.792,6.104
			c-0.768,3.248,0.568,6.64,3.344,8.496l17.344,11.56l-11.56,17.344c-0.872,1.304-1.344,2.856-1.344,4.432v16
			c0,1.64,0.504,3.24,1.448,4.584l56,80c1.496,2.144,3.944,3.416,6.552,3.416h64c4.416,0,8-3.576,8-8v-64
			C143.998,363.575,140.415,359.999,135.998,359.999z M127.998,423.999H76.167l-52.168-74.52v-11.056l14.656-21.984
			c2.448-3.68,1.456-8.64-2.216-11.096l-6.112-4.072l37.76-4.72l16.328,24.488l-1.88-0.624c-2.176-0.752-4.56-0.488-6.544,0.664
			c-1.984,1.16-3.376,3.104-3.832,5.352l-8,40c-0.472,2.352,0.136,4.792,1.656,6.64c1.52,1.848,3.784,2.928,6.184,2.928h56V423.999z
			"/>
	</g>
</g>
<g>
	<g>
		<path d="M478.854,315.879l-24-40c-2.232-3.728-7.04-5-10.832-2.832l-56,32c-3.688,2.112-5.088,6.728-3.184,10.52l26.216,52.432
			h-19.056v-8c0-3.232-1.952-6.16-4.936-7.392c-3-1.256-6.432-0.552-8.72,1.736l-40,40c-3.128,3.128-3.128,8.184,0,11.312l40,40
			c1.528,1.528,3.576,2.344,5.656,2.344c1.032,0,2.072-0.192,3.064-0.608c2.984-1.232,4.936-4.16,4.936-7.392v-8h32
			c2.52,0,4.888-1.184,6.4-3.2l48-64c1.04-1.384,1.6-3.064,1.6-4.8v-40C479.998,318.543,479.607,317.127,478.854,315.879z
			 M463.998,357.335l-44,58.664h-36c-3.432,0-6.352,2.16-7.496,5.192l-21.192-21.192l21.192-21.192
			c1.144,3.032,4.064,5.192,7.496,5.192h40c2.776,0,5.344-1.44,6.808-3.8c1.464-2.36,1.592-5.304,0.352-7.784l-28.616-57.232
			l42.632-24.36l18.824,31.392V357.335z"/>
	</g>
</g>
<g>
	<g>
		<path d="M319.055,228.231c-1.392-2.608-4.104-4.232-7.056-4.232h-45.752l13.512-54.064c0.6-2.392,0.064-4.92-1.456-6.856
			c-1.512-1.944-3.84-3.08-6.304-3.08h-64c-3.984,0-7.352,2.928-7.92,6.864l-16,112c-0.368,2.568,0.536,5.168,2.424,6.944
			c1.88,1.784,4.52,2.512,7.064,2.032l30.432-6.08v70.24c0,3.52,2.312,6.632,5.68,7.656c0.768,0.232,1.544,0.344,2.32,0.344
			c2.624,0,5.144-1.296,6.656-3.56l80-120C320.294,233.983,320.446,230.831,319.055,228.231z M239.998,325.575v-53.576
			c0-2.4-1.072-4.664-2.928-6.184c-1.44-1.184-3.24-1.816-5.072-1.816c-0.52,0-1.048,0.056-1.568,0.16l-28.912,5.784l13.416-93.944
			h46.816l-13.512,54.064c-0.6,2.392-0.056,4.92,1.456,6.856c1.512,1.944,3.84,3.08,6.304,3.08h41.048L239.998,325.575z"/>
	</g>
</g>
<g>
	<g>
		<path d="M133.358,110.175l-10.16-12.352c-42.704,35.112-67.2,86.936-67.2,142.176c0,8.384,0.568,16.824,1.696,25.088l15.848-2.16
			c-1.024-7.552-1.544-15.264-1.544-22.928C71.998,189.559,94.366,142.239,133.358,110.175z"/>
	</g>
</g>
<g>
	<g>
		<path d="M316.359,389.679c-23.768,12.152-49.464,18.32-76.36,18.32s-52.592-6.168-76.368-18.32l-7.28,14.248
			c26.048,13.32,54.192,20.072,83.648,20.072s57.6-6.752,83.64-20.072L316.359,389.679z"/>
	</g>
</g>
<g>
	<g>
		<path d="M357.094,98.063l-10.184,12.344c38.824,32.064,61.088,79.296,61.088,129.592c0,10.264-0.936,20.544-2.768,30.552
			l15.736,2.896c2.016-10.952,3.032-22.216,3.032-33.448C423.998,184.911,399.615,133.175,357.094,98.063z"/>
	</g>
</g>
<g>
</g>
<g>
</g>
<g>
</g>
<g>
</g>
<g>
</g>
<g>
</g>
<g>
</g>
<g>
</g>
<g>
</g>
<g>
</g>
<g>
</g>
<g>
</g>
<g>
</g>
<g>
</g>
<g>
</g>
</svg>
